<svg xmlns="http://www.w3.org/2000/svg" xmlns:xlink="http://www.w3.org/1999/xlink" width="500" zoomAndPan="magnify" viewBox="0 0 375 374.999991" height="500" preserveAspectRatio="xMidYMid meet" version="1.0"><defs><clipPath id="1e5a61ca5f"><path d="M 48 141 L 140.613281 141 L 140.613281 233 L 48 233 Z M 48 141 " clip-rule="nonzero"/></clipPath><clipPath id="45c9cd1d57"><path d="M 47.613281 140.589844 L 140.613281 140.589844 L 140.613281 233.589844 L 47.613281 233.589844 Z M 47.613281 140.589844 " clip-rule="nonzero"/></clipPath><clipPath id="59c95f7f43"><path d="M 141 234 L 233.871094 234 L 233.871094 326.847656 L 141 326.847656 Z M 141 234 " clip-rule="nonzero"/></clipPath><clipPath id="267676b879"><path d="M 140.871094 233.847656 L 233.871094 233.847656 L 233.871094 326.847656 L 140.871094 326.847656 Z M 140.871094 233.847656 " clip-rule="nonzero"/></clipPath><clipPath id="1732a48a8c"><path d="M 234.128906 140.589844 L 327.128906 140.589844 L 327.128906 233.589844 L 234.128906 233.589844 Z M 234.128906 140.589844 " clip-rule="nonzero"/></clipPath><clipPath id="dcd6605d30"><path d="M 48 48 L 140.613281 48 L 140.613281 140.894531 L 48 140.894531 Z M 48 48 " clip-rule="nonzero"/></clipPath><clipPath id="0de2ae39fa"><path d="M 47.613281 47.894531 L 140.613281 47.894531 L 140.613281 140.894531 L 47.613281 140.894531 Z M 47.613281 47.894531 " clip-rule="nonzero"/></clipPath><clipPath id="7cc0706d75"><path d="M 235 48 L 327 48 L 327 140.894531 L 235 140.894531 Z M 235 48 " clip-rule="nonzero"/></clipPath><clipPath id="c9a8a28e8f"><path d="M 234.128906 47.894531 L 327.128906 47.894531 L 327.128906 140.894531 L 234.128906 140.894531 Z M 234.128906 47.894531 " clip-rule="nonzero"/></clipPath></defs><g clip-path="url(#1e5a61ca5f)"><path fill="#000000" d="M 139.730469 188.011719 C 139.230469 188.828125 138.386719 189.3125 137.550781 189.777344 C 137.90625 190.289062 137.890625 190.972656 137.734375 191.574219 C 137.578125 192.171875 137.292969 192.734375 137.132812 193.335938 C 136.972656 193.9375 137.011719 194.730469 137.359375 195.242188 C 136.882812 195.261719 136.480469 195.648438 136.285156 196.085938 C 136.089844 196.527344 136.058594 197.015625 136.019531 197.496094 C 135.976562 197.976562 135.914062 198.472656 135.664062 198.878906 L 135.671875 198.882812 C 136.363281 199.15625 137.078125 199.449219 137.566406 200.007812 C 137.707031 200.171875 137.828125 200.355469 137.902344 200.558594 C 138.074219 201.019531 138.003906 201.546875 137.8125 202 C 137.621094 202.457031 137.320312 202.855469 137.023438 203.25 C 137.410156 203.632812 138.042969 204.066406 138.21875 204.585938 C 138.332031 204.914062 138.339844 205.269531 138.390625 205.613281 C 138.558594 206.835938 139.210938 207.984375 139.167969 209.21875 L 139.167969 209.222656 C 139.164062 209.347656 139.074219 209.453125 138.964844 209.519531 C 138.855469 209.582031 138.734375 209.621094 138.625 209.675781 C 138.242188 209.871094 138.039062 210.308594 137.957031 210.734375 C 137.878906 211.160156 137.890625 211.597656 137.800781 212.019531 C 137.617188 212.878906 136.957031 213.578125 136.386719 214.246094 C 136.695312 214.640625 137.011719 215.035156 137.191406 215.503906 C 137.371094 215.96875 137.390625 216.523438 137.125 216.945312 C 136.800781 217.464844 136.019531 217.710938 135.429688 217.867188 C 135.863281 218.289062 136.324219 218.753906 136.414062 219.355469 C 136.472656 219.773438 136.34375 220.199219 136.398438 220.617188 C 136.445312 220.976562 136.625 221.308594 136.859375 221.585938 C 137.09375 221.859375 137.382812 222.09375 137.660156 222.320312 C 137.152344 223.085938 137.203125 224.183594 137.441406 225.070312 C 137.683594 225.960938 138.109375 226.789062 138.34375 227.679688 C 138.644531 228.816406 138.625 230.035156 138.289062 231.164062 C 136.761719 231.527344 134.988281 231.527344 133.503906 231.019531 C 132.820312 230.785156 132.167969 230.464844 131.460938 230.3125 C 130.753906 230.160156 129.902344 230.183594 129.328125 230.617188 C 129.066406 230.1875 128.660156 229.839844 128.191406 229.652344 C 127.648438 229.433594 127.046875 229.425781 126.464844 229.332031 C 125.886719 229.242188 125.242188 228.992188 124.914062 228.503906 C 124.777344 229.113281 124.488281 229.691406 124.085938 230.171875 C 123.941406 230.339844 123.765625 230.507812 123.542969 230.542969 C 123.378906 230.566406 123.210938 230.507812 123.054688 230.445312 C 122.460938 230.214844 121.878906 229.859375 121.355469 229.492188 C 121.046875 229.476562 120.769531 229.679688 120.554688 229.898438 C 120.339844 230.121094 120.15625 230.382812 119.894531 230.546875 C 119.226562 230.96875 118.320312 230.640625 117.585938 230.925781 C 116.984375 231.160156 116.472656 231.730469 116.144531 232.285156 C 115.933594 232.105469 115.648438 232.042969 115.375 232.019531 C 115.097656 231.996094 114.820312 232.007812 114.550781 231.945312 C 114.144531 231.855469 113.789062 231.617188 113.394531 231.488281 C 112.835938 231.308594 112.222656 231.363281 111.667969 231.179688 C 111.035156 230.972656 110.539062 230.484375 110.070312 230.011719 C 109.484375 230.453125 109.214844 230.550781 108.535156 230.820312 C 108.261719 230.929688 107.964844 231.023438 107.679688 230.953125 C 107.441406 230.894531 107.246094 230.730469 107.074219 230.558594 C 106.566406 230.050781 106.15625 229.402344 105.875 228.742188 C 105.132812 229.125 104.207031 228.839844 103.410156 229.09375 C 102.855469 229.273438 102.359375 229.742188 102.164062 230.296875 C 101.761719 229.914062 101.121094 229.910156 100.589844 230.074219 C 100.058594 230.242188 99.582031 230.542969 99.050781 230.707031 C 98.332031 230.929688 97.53125 230.882812 96.84375 230.578125 L 96.847656 230.425781 C 96.585938 231.417969 95.878906 232.28125 94.957031 232.726562 C 94.699219 232.851562 94.410156 232.949219 94.125 232.902344 C 93.886719 232.867188 93.671875 232.734375 93.476562 232.59375 C 92.757812 232.078125 92.144531 231.417969 91.683594 230.660156 C 90.867188 230.796875 90.035156 230.9375 89.273438 230.609375 C 88.886719 230.441406 88.546875 230.160156 88.152344 230.011719 C 87.527344 229.78125 86.78125 229.933594 86.292969 230.378906 C 86.191406 229.902344 85.785156 229.507812 85.339844 229.308594 C 84.894531 229.109375 84.402344 229.058594 83.917969 229.003906 C 83.433594 228.953125 82.941406 228.898438 82.5 228.691406 C 82.421875 229.402344 82.136719 229.945312 81.660156 230.472656 C 81.464844 230.6875 81.230469 230.882812 80.945312 230.925781 C 80.765625 230.957031 80.574219 230.917969 80.398438 230.867188 C 79.75 230.691406 79.132812 230.398438 78.589844 230.003906 C 77.703125 230.308594 77.175781 231.234375 76.261719 231.441406 C 75.832031 231.535156 75.375 231.449219 74.945312 231.546875 C 74.605469 231.621094 74.304688 231.796875 73.972656 231.894531 C 73.386719 232.070312 72.722656 231.988281 72.199219 232.300781 C 71.921875 231.675781 71.25 231.164062 70.59375 230.976562 C 70.207031 230.867188 69.796875 230.859375 69.402344 230.773438 C 68.652344 230.613281 67.828125 230.035156 67.375 229.414062 C 67.035156 229.726562 66.972656 229.785156 66.574219 230.019531 C 66.175781 230.25 65.707031 230.386719 65.253906 230.320312 C 64.839844 230.257812 64.457031 230.019531 64.195312 229.699219 C 63.925781 229.375 63.710938 228.839844 63.65625 228.425781 C 63.308594 228.980469 62.667969 229.324219 62.015625 229.390625 C 61.570312 229.4375 61.117188 229.367188 60.675781 229.449219 C 60.0625 229.566406 59.410156 230.089844 59.152344 230.660156 C 58.605469 230.257812 57.875 230.207031 57.203125 230.296875 C 56.125 230.449219 55.117188 230.917969 54.066406 231.199219 C 52.851562 231.523438 51.15625 231.535156 50.199219 231.164062 C 49.863281 230.039062 49.84375 228.820312 50.144531 227.683594 C 50.382812 226.792969 50.808594 225.960938 51.042969 225.074219 C 51.285156 224.183594 51.339844 223.089844 50.824219 222.324219 C 51.109375 222.09375 51.394531 221.863281 51.625 221.585938 C 51.859375 221.308594 52.042969 220.976562 52.089844 220.617188 C 52.144531 220.199219 52.011719 219.773438 52.074219 219.355469 C 52.164062 218.757812 52.625 218.289062 53.058594 217.867188 C 52.464844 217.714844 51.6875 217.464844 51.363281 216.949219 C 51.097656 216.523438 51.117188 215.972656 51.296875 215.503906 C 51.472656 215.039062 51.792969 214.640625 52.101562 214.25 C 51.53125 213.578125 50.871094 212.882812 50.6875 212.019531 C 50.597656 211.597656 50.613281 211.160156 50.53125 210.734375 C 50.449219 210.308594 50.246094 209.875 49.863281 209.679688 C 49.753906 209.621094 49.628906 209.585938 49.523438 209.519531 C 49.414062 209.457031 49.320312 209.351562 49.320312 209.222656 C 49.277344 207.992188 49.925781 206.839844 50.097656 205.617188 C 50.148438 205.273438 50.15625 204.917969 50.269531 204.585938 C 50.441406 204.070312 51.074219 203.636719 51.464844 203.25 C 51.164062 202.859375 50.867188 202.457031 50.675781 202.003906 C 50.484375 201.546875 50.414062 201.019531 50.585938 200.558594 C 50.660156 200.355469 50.78125 200.171875 50.921875 200.007812 C 51.40625 199.449219 52.125 199.15625 52.8125 198.882812 L 52.824219 198.882812 C 52.574219 198.46875 52.511719 197.976562 52.46875 197.5 C 52.429688 197.019531 52.398438 196.527344 52.203125 196.089844 C 52.011719 195.652344 51.609375 195.265625 51.125 195.242188 C 51.476562 194.726562 51.515625 193.9375 51.355469 193.335938 C 51.195312 192.738281 50.910156 192.175781 50.753906 191.574219 C 50.59375 190.972656 50.582031 190.289062 50.9375 189.777344 C 50.101562 189.3125 49.253906 188.832031 48.757812 188.015625 C 48.570312 187.707031 48.441406 187.339844 48.503906 186.988281 C 48.554688 186.71875 48.707031 186.484375 48.875 186.265625 C 49.148438 185.914062 49.464844 185.59375 49.816406 185.316406 C 50.050781 185.128906 50.300781 184.957031 50.488281 184.722656 C 50.671875 184.488281 50.785156 184.167969 50.683594 183.886719 C 50.628906 183.414062 50.644531 182.847656 50.792969 182.394531 C 50.960938 181.886719 51.335938 181.464844 51.488281 180.949219 C 51.664062 180.367188 51.527344 179.675781 51.125 179.214844 C 51.40625 179.097656 51.699219 178.972656 51.898438 178.742188 C 52.082031 178.535156 52.171875 178.269531 52.238281 178.003906 C 52.4375 177.261719 52.503906 176.488281 52.570312 175.726562 C 52.578125 175.652344 52.582031 175.570312 52.542969 175.507812 C 52.503906 175.441406 52.253906 175.378906 52.207031 175.4375 C 51.363281 175.234375 50.671875 174.5 50.515625 173.640625 C 50.359375 172.78125 50.757812 171.855469 51.480469 171.371094 C 50.851562 170.972656 50.40625 170.277344 50.179688 169.566406 C 49.953125 168.855469 49.882812 168.105469 49.769531 167.367188 C 49.65625 166.632812 49.492188 165.882812 49.105469 165.246094 C 49.707031 164.792969 50.355469 164.359375 50.550781 163.664062 C 50.699219 163.160156 50.664062 162.617188 50.785156 162.101562 C 50.953125 161.394531 51.417969 160.765625 52.042969 160.398438 C 51.734375 160.007812 51.429688 159.5 51.277344 159.023438 C 51.121094 158.550781 51.117188 158.007812 51.378906 157.578125 C 51.703125 157.035156 52.425781 156.757812 53.042969 156.613281 L 53.070312 156.613281 C 52.761719 156.386719 52.777344 156.402344 52.554688 156.09375 C 52.285156 155.714844 52.171875 155.25 52.101562 154.792969 C 52.03125 154.332031 52 153.867188 51.871094 153.421875 C 51.882812 153.105469 51.710938 152.726562 51.445312 152.554688 C 51.269531 152.441406 51.042969 152.371094 50.957031 152.179688 C 50.902344 152.054688 50.925781 151.910156 50.996094 151.792969 C 51.066406 151.683594 51.191406 151.574219 51.3125 151.511719 C 51.273438 150.242188 50.753906 149.039062 50.429688 147.8125 C 50.023438 146.304688 49.898438 144.722656 50.066406 143.171875 C 51.027344 142.804688 52.859375 142.894531 54.074219 143.21875 C 55.125 143.5 56.128906 143.972656 57.210938 144.121094 C 57.878906 144.214844 58.613281 144.164062 59.160156 143.761719 C 59.417969 144.332031 60.066406 144.859375 60.683594 144.972656 C 61.125 145.054688 61.578125 144.984375 62.023438 145.027344 C 62.679688 145.097656 63.316406 145.4375 63.664062 145.996094 C 63.71875 145.582031 63.933594 145.046875 64.199219 144.722656 C 64.46875 144.398438 64.847656 144.164062 65.261719 144.101562 C 65.714844 144.03125 66.183594 144.171875 66.582031 144.402344 C 66.980469 144.632812 67.042969 144.691406 67.378906 145.003906 C 67.839844 144.386719 68.660156 143.808594 69.410156 143.648438 C 69.804688 143.5625 70.214844 143.554688 70.601562 143.445312 C 71.261719 143.253906 71.929688 142.75 72.207031 142.117188 C 72.730469 142.429688 73.394531 142.347656 73.980469 142.523438 C 74.308594 142.621094 74.613281 142.800781 74.949219 142.875 C 75.382812 142.96875 75.839844 142.886719 76.269531 142.980469 C 77.183594 143.183594 77.710938 144.113281 78.597656 144.414062 C 79.140625 144.019531 79.757812 143.726562 80.40625 143.550781 C 80.585938 143.503906 80.773438 143.464844 80.953125 143.492188 C 81.238281 143.535156 81.476562 143.734375 81.664062 143.945312 C 82.144531 144.476562 82.429688 145.019531 82.503906 145.726562 C 82.949219 145.523438 83.441406 145.464844 83.925781 145.414062 C 84.410156 145.363281 84.902344 145.308594 85.347656 145.109375 C 85.792969 144.914062 86.199219 144.515625 86.300781 144.039062 C 86.789062 144.488281 87.535156 144.636719 88.160156 144.40625 C 88.558594 144.261719 88.894531 143.980469 89.28125 143.8125 C 90.042969 143.484375 90.875 143.625 91.691406 143.761719 C 92.152344 143.003906 92.765625 142.34375 93.484375 141.828125 C 93.679688 141.6875 93.894531 141.554688 94.132812 141.515625 C 94.417969 141.472656 94.707031 141.566406 94.964844 141.695312 C 95.886719 142.140625 96.59375 143.003906 96.855469 143.992188 L 96.851562 143.84375 C 97.539062 143.535156 98.339844 143.492188 99.058594 143.710938 C 99.585938 143.878906 100.066406 144.179688 100.597656 144.34375 C 101.128906 144.507812 101.769531 144.503906 102.171875 144.121094 C 102.363281 144.675781 102.859375 145.148438 103.417969 145.324219 C 104.214844 145.578125 105.136719 145.296875 105.878906 145.675781 C 106.164062 145.015625 106.574219 144.371094 107.082031 143.863281 C 107.253906 143.691406 107.449219 143.523438 107.6875 143.464844 C 107.972656 143.394531 108.269531 143.492188 108.542969 143.601562 C 109.21875 143.871094 109.492188 143.96875 110.078125 144.40625 C 110.546875 143.933594 111.039062 143.449219 111.671875 143.238281 C 112.230469 143.054688 112.847656 143.109375 113.402344 142.929688 C 113.796875 142.804688 114.152344 142.5625 114.558594 142.472656 C 114.828125 142.414062 115.105469 142.425781 115.382812 142.398438 C 115.65625 142.375 115.941406 142.3125 116.152344 142.132812 C 116.480469 142.691406 116.988281 143.261719 117.59375 143.496094 C 118.332031 143.777344 119.238281 143.453125 119.902344 143.875 C 120.164062 144.039062 120.347656 144.296875 120.5625 144.519531 C 120.777344 144.742188 121.054688 144.941406 121.363281 144.925781 C 121.882812 144.5625 122.472656 144.207031 123.0625 143.972656 C 123.21875 143.910156 123.382812 143.855469 123.550781 143.878906 C 123.773438 143.910156 123.949219 144.078125 124.09375 144.25 C 124.496094 144.730469 124.785156 145.304688 124.921875 145.917969 C 125.25 145.429688 125.894531 145.179688 126.472656 145.085938 C 127.054688 144.992188 127.652344 144.984375 128.199219 144.765625 C 128.667969 144.578125 129.074219 144.234375 129.335938 143.800781 C 129.910156 144.238281 130.761719 144.261719 131.46875 144.109375 C 132.171875 143.957031 132.828125 143.628906 133.511719 143.398438 C 134.996094 142.890625 136.90625 142.808594 138.4375 143.171875 C 138.601562 144.722656 138.480469 146.300781 138.074219 147.808594 C 137.746094 149.039062 137.226562 150.238281 137.191406 151.511719 C 137.308594 151.570312 137.433594 151.675781 137.503906 151.792969 C 137.578125 151.910156 137.601562 152.054688 137.546875 152.179688 C 137.460938 152.371094 137.230469 152.441406 137.054688 152.554688 C 136.792969 152.726562 136.621094 153.101562 136.632812 153.417969 C 136.503906 153.867188 136.472656 154.332031 136.402344 154.789062 C 136.328125 155.25 136.214844 155.714844 135.949219 156.089844 C 135.726562 156.402344 135.738281 156.386719 135.433594 156.613281 L 135.457031 156.613281 C 136.078125 156.757812 136.796875 157.035156 137.125 157.578125 C 137.378906 158.003906 137.378906 158.550781 137.226562 159.023438 C 137.070312 159.496094 136.765625 160.003906 136.457031 160.398438 C 137.085938 160.761719 137.550781 161.394531 137.714844 162.101562 C 137.835938 162.613281 137.804688 163.15625 137.949219 163.664062 C 138.152344 164.355469 138.796875 164.792969 139.394531 165.242188 C 139.007812 165.882812 138.847656 166.628906 138.734375 167.367188 C 138.621094 168.105469 138.546875 168.855469 138.320312 169.566406 C 138.09375 170.277344 137.652344 170.972656 137.019531 171.367188 C 137.746094 171.851562 138.140625 172.785156 137.988281 173.640625 C 137.835938 174.496094 137.140625 175.230469 136.292969 175.433594 C 136.246094 175.375 136 175.441406 135.960938 175.503906 C 135.921875 175.570312 135.925781 175.648438 135.933594 175.726562 C 136 176.492188 136.070312 177.257812 136.261719 178 C 136.332031 178.265625 136.421875 178.535156 136.601562 178.742188 C 136.804688 178.96875 137.09375 179.097656 137.375 179.214844 C 136.972656 179.675781 136.839844 180.363281 137.015625 180.949219 C 137.167969 181.460938 137.542969 181.886719 137.707031 182.394531 C 137.859375 182.84375 137.875 183.410156 137.820312 183.882812 C 137.71875 184.164062 137.828125 184.488281 138.015625 184.722656 C 138.199219 184.957031 138.453125 185.125 138.6875 185.3125 C 139.035156 185.59375 139.351562 185.914062 139.625 186.265625 C 139.792969 186.480469 139.949219 186.71875 139.996094 186.988281 C 140.050781 187.339844 139.917969 187.703125 139.730469 188.011719 Z M 139.730469 188.011719 " fill-opacity="1" fill-rule="nonzero"/></g><g clip-path="url(#45c9cd1d57)"><path fill="#000000" d="M 47.613281 140.589844 L 140.859375 140.589844 L 140.859375 233.835938 L 47.613281 233.835938 Z M 47.613281 140.589844 " fill-opacity="1" fill-rule="nonzero"/></g><g clip-path="url(#59c95f7f43)"><path fill="#000000" d="M 232.988281 281.269531 C 232.488281 282.085938 231.644531 282.566406 230.808594 283.035156 C 231.164062 283.542969 231.148438 284.230469 230.992188 284.832031 C 230.835938 285.429688 230.546875 285.992188 230.390625 286.59375 C 230.230469 287.191406 230.269531 287.988281 230.617188 288.5 C 230.140625 288.519531 229.738281 288.902344 229.539062 289.34375 C 229.347656 289.785156 229.316406 290.273438 229.277344 290.753906 C 229.234375 291.234375 229.167969 291.726562 228.921875 292.136719 L 228.929688 292.140625 C 229.617188 292.414062 230.335938 292.703125 230.820312 293.261719 C 230.964844 293.429688 231.085938 293.613281 231.160156 293.816406 C 231.328125 294.277344 231.261719 294.804688 231.070312 295.257812 C 230.878906 295.714844 230.578125 296.113281 230.28125 296.507812 C 230.667969 296.890625 231.300781 297.324219 231.476562 297.839844 C 231.585938 298.171875 231.597656 298.527344 231.648438 298.871094 C 231.816406 300.09375 232.464844 301.242188 232.425781 302.476562 L 232.425781 302.480469 C 232.421875 302.605469 232.332031 302.710938 232.222656 302.777344 C 232.113281 302.839844 231.992188 302.878906 231.882812 302.933594 C 231.496094 303.128906 231.292969 303.566406 231.214844 303.992188 C 231.132812 304.414062 231.148438 304.855469 231.058594 305.277344 C 230.875 306.136719 230.214844 306.835938 229.640625 307.503906 C 229.953125 307.898438 230.269531 308.292969 230.449219 308.761719 C 230.625 309.226562 230.648438 309.78125 230.382812 310.203125 C 230.058594 310.722656 229.277344 310.96875 228.6875 311.125 C 229.121094 311.546875 229.582031 312.011719 229.667969 312.613281 C 229.730469 313.03125 229.601562 313.453125 229.652344 313.871094 C 229.699219 314.234375 229.882812 314.566406 230.117188 314.839844 C 230.351562 315.117188 230.636719 315.347656 230.917969 315.578125 C 230.410156 316.34375 230.460938 317.441406 230.699219 318.328125 C 230.941406 319.21875 231.363281 320.046875 231.601562 320.9375 C 231.902344 322.074219 231.878906 323.292969 231.546875 324.421875 C 230.019531 324.78125 228.246094 324.785156 226.761719 324.277344 C 226.078125 324.042969 225.421875 323.722656 224.71875 323.570312 C 224.011719 323.417969 223.160156 323.441406 222.585938 323.875 C 222.324219 323.441406 221.917969 323.097656 221.449219 322.910156 C 220.90625 322.691406 220.304688 322.683594 219.722656 322.589844 C 219.144531 322.496094 218.5 322.246094 218.171875 321.761719 C 218.03125 322.371094 217.746094 322.949219 217.34375 323.429688 C 217.199219 323.597656 217.023438 323.765625 216.800781 323.800781 C 216.632812 323.820312 216.46875 323.765625 216.3125 323.703125 C 215.71875 323.472656 215.132812 323.117188 214.613281 322.75 C 214.304688 322.734375 214.027344 322.933594 213.8125 323.15625 C 213.597656 323.378906 213.414062 323.640625 213.152344 323.804688 C 212.484375 324.222656 211.578125 323.898438 210.84375 324.183594 C 210.242188 324.417969 209.730469 324.984375 209.402344 325.542969 C 209.191406 325.363281 208.90625 325.300781 208.632812 325.277344 C 208.355469 325.253906 208.078125 325.265625 207.804688 325.203125 C 207.402344 325.113281 207.046875 324.875 206.652344 324.746094 C 206.09375 324.566406 205.480469 324.621094 204.921875 324.4375 C 204.292969 324.230469 203.796875 323.742188 203.328125 323.269531 C 202.742188 323.707031 202.472656 323.804688 201.792969 324.078125 C 201.519531 324.183594 201.222656 324.28125 200.9375 324.210938 C 200.699219 324.152344 200.503906 323.988281 200.332031 323.816406 C 199.824219 323.308594 199.414062 322.660156 199.128906 322 C 198.386719 322.382812 197.464844 322.097656 196.667969 322.351562 C 196.113281 322.527344 195.617188 323 195.421875 323.554688 C 195.019531 323.171875 194.378906 323.167969 193.847656 323.332031 C 193.316406 323.496094 192.835938 323.800781 192.304688 323.964844 C 191.585938 324.1875 190.789062 324.140625 190.101562 323.832031 L 190.101562 323.683594 C 189.84375 324.675781 189.132812 325.535156 188.214844 325.984375 C 187.953125 326.109375 187.667969 326.203125 187.382812 326.160156 C 187.144531 326.121094 186.929688 325.992188 186.734375 325.847656 C 186.015625 325.335938 185.402344 324.675781 184.941406 323.917969 C 184.125 324.054688 183.292969 324.195312 182.53125 323.863281 C 182.144531 323.699219 181.804688 323.417969 181.410156 323.269531 C 180.785156 323.039062 180.039062 323.1875 179.546875 323.636719 C 179.449219 323.160156 179.039062 322.765625 178.597656 322.566406 C 178.152344 322.367188 177.660156 322.3125 177.175781 322.261719 C 176.691406 322.210938 176.199219 322.152344 175.753906 321.949219 C 175.679688 322.660156 175.394531 323.203125 174.914062 323.730469 C 174.722656 323.945312 174.488281 324.140625 174.203125 324.183594 C 174.023438 324.214844 173.832031 324.171875 173.65625 324.125 C 173.007812 323.949219 172.390625 323.65625 171.847656 323.261719 C 170.960938 323.566406 170.433594 324.492188 169.519531 324.695312 C 169.089844 324.792969 168.628906 324.707031 168.199219 324.804688 C 167.863281 324.878906 167.5625 325.054688 167.230469 325.152344 C 166.644531 325.328125 165.980469 325.246094 165.457031 325.558594 C 165.179688 324.933594 164.507812 324.421875 163.851562 324.234375 C 163.464844 324.121094 163.054688 324.113281 162.660156 324.03125 C 161.910156 323.871094 161.085938 323.289062 160.628906 322.671875 C 160.292969 322.984375 160.230469 323.042969 159.832031 323.277344 C 159.433594 323.507812 158.964844 323.644531 158.511719 323.578125 C 158.09375 323.515625 157.714844 323.277344 157.449219 322.957031 C 157.183594 322.632812 156.964844 322.097656 156.914062 321.683594 C 156.5625 322.238281 155.925781 322.582031 155.273438 322.648438 C 154.828125 322.695312 154.375 322.625 153.933594 322.707031 C 153.316406 322.820312 152.667969 323.347656 152.410156 323.917969 C 151.863281 323.515625 151.132812 323.460938 150.460938 323.554688 C 149.378906 323.703125 148.375 324.175781 147.324219 324.457031 C 146.109375 324.78125 144.414062 324.789062 143.457031 324.421875 C 143.117188 323.296875 143.101562 322.078125 143.402344 320.941406 C 143.640625 320.050781 144.0625 319.21875 144.300781 318.332031 C 144.542969 317.441406 144.59375 316.347656 144.082031 315.582031 C 144.367188 315.351562 144.648438 315.121094 144.882812 314.84375 C 145.117188 314.566406 145.300781 314.234375 145.347656 313.875 C 145.402344 313.457031 145.269531 313.03125 145.332031 312.613281 C 145.421875 312.015625 145.882812 311.546875 146.316406 311.125 C 145.722656 310.972656 144.945312 310.722656 144.621094 310.203125 C 144.355469 309.78125 144.375 309.226562 144.554688 308.761719 C 144.730469 308.296875 145.046875 307.894531 145.359375 307.507812 C 144.789062 306.835938 144.128906 306.140625 143.945312 305.277344 C 143.855469 304.855469 143.871094 304.417969 143.789062 303.992188 C 143.707031 303.566406 143.503906 303.132812 143.121094 302.933594 C 143.007812 302.878906 142.886719 302.84375 142.78125 302.777344 C 142.671875 302.714844 142.578125 302.609375 142.578125 302.480469 C 142.53125 301.246094 143.183594 300.097656 143.355469 298.875 C 143.402344 298.527344 143.414062 298.171875 143.523438 297.84375 C 143.699219 297.324219 144.332031 296.894531 144.71875 296.507812 C 144.421875 296.113281 144.121094 295.714844 143.933594 295.257812 C 143.742188 294.804688 143.667969 294.277344 143.84375 293.816406 C 143.917969 293.613281 144.039062 293.425781 144.179688 293.265625 C 144.664062 292.707031 145.382812 292.414062 146.070312 292.140625 L 146.082031 292.140625 C 145.832031 291.726562 145.769531 291.234375 145.726562 290.753906 C 145.683594 290.277344 145.65625 289.785156 145.460938 289.347656 C 145.269531 288.90625 144.867188 288.523438 144.382812 288.5 C 144.730469 287.984375 144.773438 287.195312 144.613281 286.59375 C 144.453125 285.996094 144.167969 285.433594 144.011719 284.832031 C 143.851562 284.230469 143.839844 283.546875 144.191406 283.035156 C 143.359375 282.570312 142.511719 282.089844 142.015625 281.269531 C 141.828125 280.964844 141.699219 280.597656 141.761719 280.246094 C 141.8125 279.976562 141.964844 279.742188 142.132812 279.523438 C 142.40625 279.171875 142.722656 278.851562 143.070312 278.574219 C 143.304688 278.386719 143.558594 278.214844 143.746094 277.980469 C 143.929688 277.746094 144.042969 277.425781 143.941406 277.144531 C 143.886719 276.671875 143.902344 276.105469 144.050781 275.652344 C 144.21875 275.144531 144.59375 274.722656 144.746094 274.207031 C 144.917969 273.625 144.785156 272.933594 144.382812 272.472656 C 144.664062 272.355469 144.957031 272.230469 145.15625 272 C 145.335938 271.792969 145.425781 271.523438 145.496094 271.257812 C 145.691406 270.515625 145.761719 269.746094 145.828125 268.984375 C 145.835938 268.910156 145.839844 268.828125 145.796875 268.761719 C 145.761719 268.699219 145.511719 268.632812 145.464844 268.695312 C 144.621094 268.492188 143.925781 267.753906 143.773438 266.898438 C 143.617188 266.039062 144.015625 265.113281 144.738281 264.628906 C 144.109375 264.230469 143.664062 263.535156 143.4375 262.824219 C 143.210938 262.113281 143.140625 261.363281 143.027344 260.625 C 142.914062 259.886719 142.746094 259.140625 142.363281 258.5 C 142.964844 258.050781 143.609375 257.617188 143.808594 256.921875 C 143.957031 256.417969 143.921875 255.875 144.042969 255.359375 C 144.207031 254.652344 144.675781 254.019531 145.300781 253.65625 C 144.992188 253.261719 144.6875 252.753906 144.535156 252.28125 C 144.378906 251.808594 144.375 251.265625 144.632812 250.835938 C 144.957031 250.292969 145.683594 250.015625 146.300781 249.871094 L 146.328125 249.871094 C 146.019531 249.644531 146.03125 249.660156 145.8125 249.351562 C 145.542969 248.972656 145.425781 248.507812 145.359375 248.050781 C 145.289062 247.589844 145.257812 247.125 145.128906 246.679688 C 145.140625 246.359375 144.96875 245.984375 144.703125 245.8125 C 144.527344 245.699219 144.296875 245.628906 144.214844 245.4375 C 144.160156 245.3125 144.183594 245.164062 144.253906 245.050781 C 144.324219 244.9375 144.449219 244.832031 144.570312 244.769531 C 144.53125 243.496094 144.011719 242.296875 143.683594 241.070312 C 143.28125 239.5625 143.15625 237.980469 143.320312 236.429688 C 144.28125 236.0625 146.117188 236.152344 147.332031 236.476562 C 148.382812 236.757812 149.386719 237.230469 150.46875 237.378906 C 151.136719 237.472656 151.871094 237.421875 152.414062 237.019531 C 152.675781 237.589844 153.324219 238.117188 153.941406 238.230469 C 154.382812 238.3125 154.835938 238.238281 155.28125 238.285156 C 155.9375 238.351562 156.570312 238.695312 156.917969 239.253906 C 156.976562 238.835938 157.191406 238.304688 157.457031 237.980469 C 157.726562 237.65625 158.105469 237.421875 158.515625 237.359375 C 158.972656 237.289062 159.441406 237.425781 159.839844 237.660156 C 160.238281 237.890625 160.300781 237.949219 160.636719 238.261719 C 161.097656 237.644531 161.914062 237.0625 162.667969 236.902344 C 163.0625 236.820312 163.472656 236.8125 163.859375 236.699219 C 164.519531 236.511719 165.1875 236.003906 165.464844 235.375 C 165.988281 235.6875 166.652344 235.605469 167.238281 235.78125 C 167.566406 235.878906 167.871094 236.058594 168.207031 236.132812 C 168.640625 236.226562 169.097656 236.140625 169.527344 236.238281 C 170.441406 236.441406 170.96875 237.371094 171.855469 237.671875 C 172.398438 237.277344 173.011719 236.980469 173.664062 236.808594 C 173.84375 236.761719 174.027344 236.722656 174.210938 236.75 C 174.496094 236.792969 174.730469 236.988281 174.921875 237.203125 C 175.398438 237.730469 175.6875 238.277344 175.761719 238.984375 C 176.207031 238.78125 176.699219 238.722656 177.183594 238.671875 C 177.667969 238.621094 178.160156 238.566406 178.605469 238.367188 C 179.050781 238.167969 179.457031 237.773438 179.554688 237.296875 C 180.046875 237.746094 180.792969 237.894531 181.417969 237.664062 C 181.816406 237.519531 182.152344 237.238281 182.539062 237.070312 C 183.300781 236.742188 184.132812 236.882812 184.949219 237.019531 C 185.410156 236.261719 186.019531 235.601562 186.742188 235.085938 C 186.9375 234.945312 187.148438 234.8125 187.390625 234.773438 C 187.675781 234.730469 187.964844 234.824219 188.222656 234.949219 C 189.140625 235.398438 189.851562 236.261719 190.109375 237.25 L 190.109375 237.101562 C 190.796875 236.792969 191.59375 236.746094 192.3125 236.96875 C 192.84375 237.132812 193.324219 237.4375 193.855469 237.601562 C 194.386719 237.765625 195.023438 237.761719 195.429688 237.378906 C 195.621094 237.929688 196.117188 238.40625 196.675781 238.582031 C 197.472656 238.835938 198.394531 238.550781 199.136719 238.933594 C 199.421875 238.273438 199.832031 237.628906 200.339844 237.121094 C 200.511719 236.945312 200.707031 236.78125 200.945312 236.722656 C 201.230469 236.652344 201.527344 236.75 201.800781 236.859375 C 202.476562 237.128906 202.75 237.226562 203.335938 237.664062 C 203.804688 237.191406 204.296875 236.707031 204.929688 236.496094 C 205.488281 236.3125 206.101562 236.367188 206.660156 236.1875 C 207.054688 236.0625 207.410156 235.820312 207.8125 235.730469 C 208.085938 235.671875 208.363281 235.683594 208.636719 235.65625 C 208.914062 235.632812 209.199219 235.570312 209.410156 235.390625 C 209.738281 235.949219 210.246094 236.519531 210.851562 236.75 C 211.589844 237.035156 212.496094 236.707031 213.160156 237.128906 C 213.421875 237.296875 213.605469 237.554688 213.820312 237.777344 C 214.035156 238 214.3125 238.199219 214.621094 238.183594 C 215.140625 237.820312 215.730469 237.464844 216.320312 237.230469 C 216.476562 237.167969 216.640625 237.113281 216.808594 237.136719 C 217.03125 237.167969 217.207031 237.332031 217.351562 237.507812 C 217.753906 237.984375 218.039062 238.5625 218.179688 239.171875 C 218.507812 238.6875 219.152344 238.4375 219.730469 238.34375 C 220.3125 238.25 220.910156 238.242188 221.457031 238.023438 C 221.925781 237.835938 222.332031 237.492188 222.59375 237.058594 C 223.167969 237.496094 224.019531 237.519531 224.722656 237.363281 C 225.429688 237.210938 226.085938 236.886719 226.769531 236.65625 C 228.253906 236.148438 230.164062 236.066406 231.695312 236.429688 C 231.859375 237.980469 231.734375 239.558594 231.332031 241.066406 C 231 242.296875 230.484375 243.496094 230.449219 244.765625 C 230.566406 244.828125 230.691406 244.933594 230.761719 245.050781 C 230.835938 245.167969 230.859375 245.3125 230.804688 245.433594 C 230.71875 245.628906 230.488281 245.699219 230.3125 245.8125 C 230.046875 245.984375 229.878906 246.359375 229.886719 246.675781 C 229.761719 247.121094 229.730469 247.589844 229.660156 248.046875 C 229.585938 248.507812 229.472656 248.96875 229.207031 249.347656 C 228.984375 249.65625 228.996094 249.644531 228.691406 249.867188 L 228.714844 249.867188 C 229.335938 250.011719 230.054688 250.292969 230.382812 250.835938 C 230.636719 251.261719 230.636719 251.808594 230.484375 252.28125 C 230.328125 252.753906 230.023438 253.261719 229.714844 253.652344 C 230.339844 254.019531 230.808594 254.652344 230.972656 255.359375 C 231.09375 255.871094 231.0625 256.414062 231.207031 256.921875 C 231.410156 257.613281 232.054688 258.050781 232.652344 258.5 C 232.265625 259.140625 232.105469 259.886719 231.992188 260.625 C 231.878906 261.363281 231.804688 262.109375 231.578125 262.820312 C 231.351562 263.535156 230.910156 264.230469 230.277344 264.625 C 231 265.109375 231.394531 266.042969 231.242188 266.894531 C 231.089844 267.75 230.398438 268.488281 229.550781 268.691406 C 229.503906 268.632812 229.257812 268.699219 229.21875 268.761719 C 229.179688 268.828125 229.183594 268.90625 229.191406 268.984375 C 229.257812 269.75 229.328125 270.515625 229.519531 271.257812 C 229.589844 271.523438 229.679688 271.792969 229.859375 272 C 230.0625 272.226562 230.351562 272.355469 230.632812 272.472656 C 230.230469 272.929688 230.097656 273.621094 230.273438 274.207031 C 230.425781 274.71875 230.796875 275.140625 230.964844 275.648438 C 231.113281 276.101562 231.128906 276.667969 231.078125 277.140625 C 230.976562 277.421875 231.085938 277.746094 231.273438 277.980469 C 231.457031 278.214844 231.710938 278.382812 231.945312 278.570312 C 232.292969 278.851562 232.609375 279.167969 232.882812 279.523438 C 233.050781 279.738281 233.203125 279.976562 233.253906 280.246094 C 233.304688 280.597656 233.175781 280.960938 232.988281 281.269531 Z M 232.988281 281.269531 " fill-opacity="1" fill-rule="nonzero"/></g><g clip-path="url(#267676b879)"><path fill="#000000" d="M 140.871094 233.847656 L 234.117188 233.847656 L 234.117188 327.09375 L 140.871094 327.09375 Z M 140.871094 233.847656 " fill-opacity="1" fill-rule="nonzero"/></g><path fill="#000000" d="M 326.242188 188.011719 C 325.746094 188.828125 324.902344 189.3125 324.066406 189.777344 C 324.417969 190.289062 324.40625 190.972656 324.25 191.574219 C 324.089844 192.171875 323.804688 192.734375 323.644531 193.335938 C 323.484375 193.9375 323.527344 194.730469 323.875 195.242188 C 323.394531 195.261719 322.992188 195.648438 322.796875 196.085938 C 322.605469 196.527344 322.574219 197.015625 322.53125 197.496094 C 322.492188 197.976562 322.425781 198.472656 322.175781 198.878906 L 322.1875 198.882812 C 322.875 199.15625 323.59375 199.449219 324.078125 200.007812 C 324.222656 200.171875 324.34375 200.355469 324.417969 200.558594 C 324.585938 201.019531 324.519531 201.546875 324.328125 202 C 324.136719 202.457031 323.835938 202.855469 323.539062 203.25 C 323.925781 203.632812 324.558594 204.066406 324.734375 204.585938 C 324.84375 204.914062 324.855469 205.269531 324.902344 205.613281 C 325.074219 206.835938 325.722656 207.984375 325.683594 209.21875 L 325.683594 209.222656 C 325.679688 209.347656 325.585938 209.453125 325.480469 209.519531 C 325.371094 209.582031 325.25 209.621094 325.140625 209.675781 C 324.753906 209.871094 324.550781 210.308594 324.472656 210.734375 C 324.390625 211.160156 324.40625 211.597656 324.3125 212.019531 C 324.132812 212.878906 323.472656 213.578125 322.898438 214.246094 C 323.210938 214.640625 323.527344 215.035156 323.707031 215.503906 C 323.882812 215.96875 323.902344 216.523438 323.636719 216.945312 C 323.3125 217.464844 322.535156 217.710938 321.941406 217.867188 C 322.378906 218.289062 322.839844 218.753906 322.925781 219.355469 C 322.984375 219.773438 322.855469 220.199219 322.910156 220.617188 C 322.957031 220.976562 323.140625 221.308594 323.375 221.585938 C 323.609375 221.859375 323.894531 222.09375 324.175781 222.320312 C 323.664062 223.085938 323.71875 224.183594 323.957031 225.070312 C 324.199219 225.960938 324.621094 226.789062 324.855469 227.679688 C 325.160156 228.816406 325.136719 230.035156 324.804688 231.164062 C 323.273438 231.527344 321.503906 231.527344 320.015625 231.019531 C 319.335938 230.785156 318.679688 230.464844 317.972656 230.3125 C 317.269531 230.160156 316.417969 230.183594 315.84375 230.617188 C 315.582031 230.1875 315.175781 229.839844 314.707031 229.652344 C 314.164062 229.433594 313.558594 229.425781 312.980469 229.332031 C 312.402344 229.242188 311.757812 228.992188 311.429688 228.503906 C 311.289062 229.113281 311.003906 229.691406 310.601562 230.171875 C 310.457031 230.339844 310.28125 230.507812 310.058594 230.542969 C 309.890625 230.566406 309.726562 230.507812 309.570312 230.445312 C 308.976562 230.214844 308.390625 229.859375 307.871094 229.492188 C 307.5625 229.476562 307.285156 229.679688 307.070312 229.898438 C 306.855469 230.121094 306.667969 230.382812 306.410156 230.546875 C 305.742188 230.96875 304.835938 230.640625 304.101562 230.925781 C 303.5 231.160156 302.988281 231.730469 302.660156 232.285156 C 302.445312 232.105469 302.164062 232.042969 301.886719 232.019531 C 301.613281 231.996094 301.335938 232.007812 301.0625 231.945312 C 300.660156 231.855469 300.304688 231.617188 299.910156 231.488281 C 299.351562 231.308594 298.738281 231.363281 298.179688 231.179688 C 297.550781 230.972656 297.054688 230.484375 296.585938 230.011719 C 296 230.453125 295.730469 230.550781 295.050781 230.820312 C 294.777344 230.929688 294.480469 231.023438 294.195312 230.953125 C 293.957031 230.894531 293.761719 230.730469 293.589844 230.558594 C 293.082031 230.050781 292.671875 229.402344 292.386719 228.742188 C 291.644531 229.125 290.722656 228.839844 289.925781 229.09375 C 289.371094 229.273438 288.871094 229.742188 288.679688 230.296875 C 288.277344 229.914062 287.636719 229.910156 287.105469 230.074219 C 286.574219 230.242188 286.09375 230.542969 285.5625 230.707031 C 284.84375 230.929688 284.046875 230.882812 283.359375 230.578125 L 283.359375 230.425781 C 283.101562 231.417969 282.390625 232.28125 281.472656 232.726562 C 281.210938 232.851562 280.921875 232.949219 280.640625 232.902344 C 280.402344 232.867188 280.1875 232.734375 279.988281 232.59375 C 279.269531 232.078125 278.65625 231.417969 278.199219 230.660156 C 277.382812 230.796875 276.550781 230.9375 275.789062 230.609375 C 275.402344 230.441406 275.0625 230.160156 274.667969 230.011719 C 274.042969 229.78125 273.296875 229.933594 272.804688 230.378906 C 272.707031 229.902344 272.296875 229.507812 271.855469 229.308594 C 271.410156 229.109375 270.917969 229.058594 270.433594 229.003906 C 269.949219 228.953125 269.457031 228.898438 269.011719 228.691406 C 268.933594 229.402344 268.652344 229.945312 268.171875 230.472656 C 267.980469 230.6875 267.746094 230.882812 267.460938 230.925781 C 267.277344 230.957031 267.089844 230.917969 266.914062 230.867188 C 266.261719 230.691406 265.648438 230.398438 265.105469 230.003906 C 264.21875 230.308594 263.691406 231.234375 262.777344 231.441406 C 262.347656 231.535156 261.886719 231.449219 261.457031 231.546875 C 261.121094 231.621094 260.820312 231.796875 260.484375 231.894531 C 259.902344 232.070312 259.238281 231.988281 258.714844 232.300781 C 258.4375 231.675781 257.765625 231.164062 257.109375 230.976562 C 256.722656 230.867188 256.3125 230.859375 255.917969 230.773438 C 255.164062 230.613281 254.34375 230.035156 253.886719 229.414062 C 253.550781 229.726562 253.488281 229.785156 253.089844 230.019531 C 252.6875 230.25 252.21875 230.386719 251.765625 230.320312 C 251.351562 230.257812 250.972656 230.019531 250.707031 229.699219 C 250.441406 229.375 250.222656 228.839844 250.167969 228.425781 C 249.820312 228.980469 249.183594 229.324219 248.53125 229.390625 C 248.085938 229.4375 247.632812 229.367188 247.191406 229.449219 C 246.574219 229.566406 245.921875 230.089844 245.664062 230.660156 C 245.121094 230.257812 244.390625 230.207031 243.71875 230.296875 C 242.636719 230.449219 241.632812 230.917969 240.582031 231.199219 C 239.367188 231.523438 237.671875 231.535156 236.714844 231.164062 C 236.375 230.039062 236.359375 228.820312 236.660156 227.683594 C 236.894531 226.792969 237.320312 225.960938 237.558594 225.074219 C 237.796875 224.183594 237.851562 223.089844 237.339844 222.324219 C 237.625 222.09375 237.90625 221.863281 238.140625 221.585938 C 238.375 221.308594 238.558594 220.976562 238.605469 220.617188 C 238.660156 220.199219 238.527344 219.773438 238.589844 219.355469 C 238.675781 218.757812 239.136719 218.289062 239.574219 217.867188 C 238.980469 217.714844 238.203125 217.464844 237.878906 216.949219 C 237.613281 216.523438 237.632812 215.972656 237.8125 215.503906 C 237.988281 215.039062 238.304688 214.640625 238.617188 214.25 C 238.042969 213.578125 237.386719 212.882812 237.203125 212.019531 C 237.113281 211.597656 237.128906 211.160156 237.042969 210.734375 C 236.964844 210.308594 236.761719 209.875 236.378906 209.679688 C 236.265625 209.621094 236.144531 209.585938 236.035156 209.519531 C 235.929688 209.457031 235.835938 209.351562 235.832031 209.222656 C 235.789062 207.992188 236.4375 206.839844 236.613281 205.617188 C 236.660156 205.273438 236.671875 204.917969 236.78125 204.585938 C 236.957031 204.070312 237.589844 203.636719 237.976562 203.25 C 237.679688 202.859375 237.378906 202.457031 237.191406 202.003906 C 237 201.546875 236.925781 201.019531 237.097656 200.558594 C 237.175781 200.355469 237.296875 200.171875 237.4375 200.007812 C 237.921875 199.449219 238.640625 199.15625 239.328125 198.882812 L 239.339844 198.882812 C 239.089844 198.46875 239.027344 197.976562 238.984375 197.5 C 238.941406 197.019531 238.910156 196.527344 238.71875 196.089844 C 238.523438 195.652344 238.121094 195.265625 237.640625 195.242188 C 237.988281 194.726562 238.03125 193.9375 237.871094 193.335938 C 237.710938 192.738281 237.425781 192.175781 237.265625 191.574219 C 237.109375 190.972656 237.097656 190.289062 237.449219 189.777344 C 236.613281 189.3125 235.769531 188.832031 235.273438 188.015625 C 235.085938 187.707031 234.957031 187.339844 235.019531 186.988281 C 235.070312 186.71875 235.222656 186.484375 235.390625 186.265625 C 235.664062 185.914062 235.980469 185.59375 236.328125 185.316406 C 236.5625 185.128906 236.816406 184.957031 237 184.722656 C 237.1875 184.488281 237.296875 184.167969 237.199219 183.886719 C 237.144531 183.414062 237.160156 182.847656 237.308594 182.394531 C 237.476562 181.886719 237.847656 181.464844 238 180.949219 C 238.175781 180.367188 238.042969 179.675781 237.640625 179.214844 C 237.921875 179.097656 238.210938 178.972656 238.414062 178.742188 C 238.59375 178.535156 238.683594 178.269531 238.753906 178.003906 C 238.949219 177.261719 239.015625 176.488281 239.085938 175.726562 C 239.089844 175.652344 239.097656 175.570312 239.054688 175.507812 C 239.015625 175.441406 238.769531 175.378906 238.722656 175.4375 C 237.878906 175.234375 237.183594 174.5 237.03125 173.640625 C 236.875 172.78125 237.273438 171.855469 237.996094 171.371094 C 237.363281 170.972656 236.921875 170.277344 236.695312 169.566406 C 236.46875 168.855469 236.394531 168.105469 236.28125 167.367188 C 236.171875 166.632812 236.003906 165.882812 235.621094 165.246094 C 236.222656 164.792969 236.867188 164.359375 237.066406 163.664062 C 237.214844 163.160156 237.179688 162.617188 237.300781 162.101562 C 237.464844 161.394531 237.933594 160.765625 238.558594 160.398438 C 238.25 160.007812 237.945312 159.5 237.789062 159.023438 C 237.636719 158.550781 237.632812 158.007812 237.890625 157.578125 C 238.214844 157.035156 238.941406 156.757812 239.558594 156.613281 L 239.585938 156.613281 C 239.277344 156.386719 239.289062 156.402344 239.070312 156.09375 C 238.800781 155.714844 238.683594 155.25 238.613281 154.792969 C 238.546875 154.332031 238.515625 153.867188 238.386719 153.421875 C 238.394531 153.105469 238.226562 152.726562 237.960938 152.554688 C 237.785156 152.441406 237.554688 152.371094 237.46875 152.179688 C 237.417969 152.054688 237.441406 151.910156 237.511719 151.792969 C 237.582031 151.683594 237.707031 151.574219 237.824219 151.511719 C 237.789062 150.242188 237.269531 149.039062 236.941406 147.8125 C 236.539062 146.304688 236.414062 144.722656 236.578125 143.171875 C 237.539062 142.804688 239.375 142.894531 240.589844 143.21875 C 241.640625 143.5 242.644531 143.972656 243.726562 144.121094 C 244.394531 144.214844 245.125 144.164062 245.671875 143.761719 C 245.929688 144.332031 246.582031 144.859375 247.199219 144.972656 C 247.640625 145.054688 248.09375 144.984375 248.539062 145.027344 C 249.191406 145.097656 249.828125 145.4375 250.175781 145.996094 C 250.234375 145.582031 250.449219 145.046875 250.714844 144.722656 C 250.984375 144.398438 251.363281 144.164062 251.773438 144.101562 C 252.230469 144.03125 252.695312 144.171875 253.097656 144.402344 C 253.496094 144.632812 253.558594 144.691406 253.894531 145.003906 C 254.355469 144.386719 255.171875 143.808594 255.925781 143.648438 C 256.320312 143.5625 256.730469 143.554688 257.117188 143.445312 C 257.773438 143.253906 258.445312 142.75 258.71875 142.117188 C 259.246094 142.429688 259.910156 142.347656 260.492188 142.523438 C 260.824219 142.621094 261.128906 142.800781 261.464844 142.875 C 261.898438 142.96875 262.355469 142.886719 262.785156 142.980469 C 263.699219 143.183594 264.226562 144.113281 265.109375 144.414062 C 265.65625 144.019531 266.269531 143.726562 266.921875 143.550781 C 267.101562 143.503906 267.285156 143.464844 267.46875 143.492188 C 267.753906 143.535156 267.988281 143.734375 268.179688 143.945312 C 268.65625 144.476562 268.941406 145.019531 269.019531 145.726562 C 269.464844 145.523438 269.957031 145.464844 270.441406 145.414062 C 270.925781 145.363281 271.417969 145.308594 271.863281 145.109375 C 272.308594 144.914062 272.714844 144.515625 272.8125 144.039062 C 273.304688 144.488281 274.050781 144.636719 274.675781 144.40625 C 275.074219 144.261719 275.40625 143.980469 275.796875 143.8125 C 276.558594 143.484375 277.390625 143.625 278.207031 143.761719 C 278.664062 143.003906 279.277344 142.34375 279.996094 141.828125 C 280.195312 141.6875 280.40625 141.554688 280.648438 141.515625 C 280.933594 141.472656 281.222656 141.566406 281.480469 141.695312 C 282.398438 142.140625 283.109375 143.003906 283.367188 143.992188 L 283.367188 143.84375 C 284.054688 143.535156 284.851562 143.492188 285.570312 143.710938 C 286.101562 143.878906 286.582031 144.179688 287.113281 144.34375 C 287.644531 144.507812 288.28125 144.503906 288.6875 144.121094 C 288.878906 144.675781 289.375 145.148438 289.933594 145.324219 C 290.730469 145.578125 291.652344 145.296875 292.394531 145.675781 C 292.679688 145.015625 293.089844 144.371094 293.597656 143.863281 C 293.769531 143.691406 293.964844 143.523438 294.203125 143.464844 C 294.488281 143.394531 294.785156 143.492188 295.058594 143.601562 C 295.734375 143.871094 296.007812 143.96875 296.59375 144.40625 C 297.0625 143.933594 297.554688 143.449219 298.1875 143.238281 C 298.746094 143.054688 299.359375 143.109375 299.917969 142.929688 C 300.3125 142.804688 300.667969 142.5625 301.070312 142.472656 C 301.339844 142.414062 301.621094 142.425781 301.894531 142.398438 C 302.171875 142.375 302.453125 142.3125 302.664062 142.132812 C 302.996094 142.691406 303.503906 143.261719 304.109375 143.496094 C 304.847656 143.777344 305.753906 143.453125 306.417969 143.875 C 306.679688 144.039062 306.863281 144.296875 307.078125 144.519531 C 307.289062 144.742188 307.570312 144.941406 307.878906 144.925781 C 308.398438 144.5625 308.984375 144.207031 309.578125 143.972656 C 309.734375 143.910156 309.898438 143.855469 310.066406 143.878906 C 310.289062 143.910156 310.464844 144.078125 310.605469 144.25 C 311.011719 144.730469 311.296875 145.304688 311.4375 145.917969 C 311.765625 145.429688 312.410156 145.179688 312.988281 145.085938 C 313.566406 144.992188 314.167969 144.984375 314.714844 144.765625 C 315.183594 144.578125 315.585938 144.234375 315.851562 143.800781 C 316.425781 144.238281 317.277344 144.261719 317.980469 144.109375 C 318.6875 143.957031 319.34375 143.628906 320.023438 143.398438 C 321.511719 142.890625 323.421875 142.808594 324.953125 143.171875 C 325.117188 144.722656 324.992188 146.300781 324.589844 147.808594 C 324.257812 149.039062 323.742188 150.238281 323.707031 151.511719 C 323.824219 151.570312 323.949219 151.675781 324.019531 151.792969 C 324.089844 151.910156 324.113281 152.054688 324.0625 152.179688 C 323.976562 152.371094 323.746094 152.441406 323.570312 152.554688 C 323.304688 152.726562 323.136719 153.101562 323.144531 153.417969 C 323.019531 153.867188 322.988281 154.332031 322.917969 154.789062 C 322.84375 155.25 322.730469 155.714844 322.460938 156.089844 C 322.242188 156.402344 322.253906 156.386719 321.945312 156.613281 L 321.972656 156.613281 C 322.589844 156.757812 323.3125 157.035156 323.640625 157.578125 C 323.894531 158.003906 323.894531 158.550781 323.742188 159.023438 C 323.585938 159.496094 323.28125 160.003906 322.972656 160.398438 C 323.597656 160.761719 324.066406 161.394531 324.230469 162.101562 C 324.347656 162.613281 324.316406 163.15625 324.464844 163.664062 C 324.664062 164.355469 325.308594 164.792969 325.910156 165.242188 C 325.523438 165.882812 325.359375 166.628906 325.246094 167.367188 C 325.136719 168.105469 325.0625 168.855469 324.835938 169.566406 C 324.609375 170.277344 324.167969 170.972656 323.535156 171.367188 C 324.257812 171.851562 324.652344 172.785156 324.5 173.640625 C 324.347656 174.496094 323.65625 175.230469 322.808594 175.433594 C 322.761719 175.375 322.515625 175.441406 322.476562 175.503906 C 322.4375 175.570312 322.441406 175.648438 322.445312 175.726562 C 322.515625 176.492188 322.582031 177.257812 322.777344 178 C 322.847656 178.265625 322.9375 178.535156 323.117188 178.742188 C 323.316406 178.96875 323.609375 179.097656 323.890625 179.214844 C 323.488281 179.675781 323.355469 180.363281 323.53125 180.949219 C 323.683594 181.460938 324.054688 181.886719 324.222656 182.394531 C 324.371094 182.84375 324.386719 183.410156 324.332031 183.882812 C 324.234375 184.164062 324.34375 184.488281 324.53125 184.722656 C 324.714844 184.957031 324.96875 185.125 325.203125 185.3125 C 325.550781 185.59375 325.867188 185.914062 326.140625 186.265625 C 326.308594 186.480469 326.460938 186.71875 326.511719 186.988281 C 326.5625 187.339844 326.433594 187.703125 326.242188 188.011719 Z M 326.242188 188.011719 " fill-opacity="1" fill-rule="nonzero"/><g clip-path="url(#1732a48a8c)"><path fill="#000000" d="M 234.128906 140.589844 L 327.375 140.589844 L 327.375 233.835938 L 234.128906 233.835938 Z M 234.128906 140.589844 " fill-opacity="1" fill-rule="nonzero"/></g><g clip-path="url(#dcd6605d30)"><path fill="#000000" d="M 139.730469 95.316406 C 139.230469 96.132812 138.386719 96.613281 137.550781 97.078125 C 137.90625 97.589844 137.890625 98.273438 137.734375 98.875 C 137.578125 99.476562 137.292969 100.039062 137.132812 100.636719 C 136.972656 101.238281 137.011719 102.03125 137.359375 102.542969 C 136.882812 102.566406 136.480469 102.949219 136.285156 103.390625 C 136.089844 103.832031 136.058594 104.320312 136.019531 104.800781 C 135.976562 105.277344 135.914062 105.773438 135.664062 106.183594 L 135.671875 106.183594 C 136.363281 106.457031 137.078125 106.75 137.566406 107.308594 C 137.707031 107.472656 137.828125 107.660156 137.902344 107.859375 C 138.074219 108.324219 138.003906 108.847656 137.8125 109.304688 C 137.621094 109.757812 137.320312 110.15625 137.023438 110.550781 C 137.410156 110.9375 138.042969 111.367188 138.21875 111.886719 C 138.332031 112.21875 138.339844 112.574219 138.390625 112.917969 C 138.558594 114.140625 139.210938 115.289062 139.167969 116.523438 C 139.164062 116.652344 139.074219 116.757812 138.964844 116.820312 C 138.855469 116.886719 138.734375 116.921875 138.625 116.980469 C 138.242188 117.175781 138.039062 117.609375 137.957031 118.035156 C 137.878906 118.460938 137.890625 118.898438 137.800781 119.320312 C 137.617188 120.179688 136.957031 120.878906 136.386719 121.550781 C 136.695312 121.941406 137.011719 122.339844 137.191406 122.804688 C 137.371094 123.273438 137.390625 123.824219 137.125 124.25 C 136.800781 124.765625 136.019531 125.011719 135.429688 125.167969 C 135.863281 125.589844 136.324219 126.058594 136.414062 126.65625 C 136.472656 127.074219 136.34375 127.5 136.398438 127.917969 C 136.445312 128.277344 136.625 128.609375 136.859375 128.886719 C 137.09375 129.164062 137.382812 129.394531 137.660156 129.625 C 137.152344 130.390625 137.203125 131.484375 137.441406 132.375 C 137.683594 133.261719 138.109375 134.09375 138.34375 134.984375 C 138.644531 136.121094 138.625 137.339844 138.289062 138.464844 C 136.761719 138.828125 134.988281 138.832031 133.503906 138.324219 C 132.820312 138.089844 132.167969 137.765625 131.460938 137.613281 C 130.753906 137.460938 129.902344 137.484375 129.328125 137.921875 C 129.066406 137.488281 128.660156 137.144531 128.191406 136.957031 C 127.648438 136.738281 127.046875 136.726562 126.464844 136.636719 C 125.886719 136.542969 125.242188 136.292969 124.914062 135.804688 C 124.777344 136.417969 124.488281 136.992188 124.085938 137.472656 C 123.941406 137.644531 123.765625 137.8125 123.542969 137.84375 C 123.378906 137.867188 123.210938 137.8125 123.054688 137.75 C 122.460938 137.515625 121.878906 137.160156 121.355469 136.796875 C 121.046875 136.78125 120.769531 136.980469 120.554688 137.203125 C 120.339844 137.425781 120.15625 137.683594 119.894531 137.847656 C 119.226562 138.269531 118.320312 137.941406 117.585938 138.226562 C 116.984375 138.460938 116.472656 139.03125 116.144531 139.589844 C 115.933594 139.410156 115.648438 139.347656 115.375 139.324219 C 115.097656 139.300781 114.820312 139.308594 114.550781 139.25 C 114.144531 139.160156 113.789062 138.917969 113.394531 138.792969 C 112.835938 138.613281 112.222656 138.664062 111.667969 138.484375 C 111.035156 138.277344 110.539062 137.789062 110.070312 137.316406 C 109.484375 137.753906 109.214844 137.851562 108.535156 138.121094 C 108.261719 138.230469 107.964844 138.324219 107.679688 138.257812 C 107.441406 138.195312 107.246094 138.03125 107.074219 137.859375 C 106.566406 137.355469 106.15625 136.707031 105.875 136.046875 C 105.132812 136.425781 104.207031 136.144531 103.410156 136.394531 C 102.855469 136.574219 102.359375 137.046875 102.164062 137.601562 C 101.761719 137.214844 101.121094 137.214844 100.589844 137.378906 C 100.058594 137.542969 99.582031 137.84375 99.050781 138.011719 C 98.332031 138.230469 97.53125 138.183594 96.84375 137.878906 L 96.847656 137.730469 C 96.585938 138.71875 95.878906 139.582031 94.957031 140.027344 C 94.699219 140.15625 94.410156 140.25 94.125 140.207031 C 93.886719 140.167969 93.671875 140.035156 93.476562 139.894531 C 92.757812 139.382812 92.144531 138.71875 91.683594 137.960938 C 90.867188 138.101562 90.035156 138.238281 89.273438 137.910156 C 88.886719 137.742188 88.546875 137.460938 88.152344 137.316406 C 87.527344 137.085938 86.78125 137.234375 86.292969 137.683594 C 86.191406 137.207031 85.785156 136.808594 85.339844 136.613281 C 84.894531 136.414062 84.402344 136.359375 83.917969 136.308594 C 83.433594 136.257812 82.941406 136.199219 82.5 135.996094 C 82.421875 136.703125 82.136719 137.246094 81.660156 137.777344 C 81.464844 137.988281 81.230469 138.183594 80.945312 138.230469 C 80.765625 138.257812 80.574219 138.21875 80.398438 138.171875 C 79.75 137.996094 79.132812 137.703125 78.589844 137.308594 C 77.703125 137.609375 77.175781 138.539062 76.261719 138.742188 C 75.832031 138.835938 75.375 138.753906 74.945312 138.847656 C 74.605469 138.921875 74.304688 139.101562 73.972656 139.199219 C 73.386719 139.371094 72.722656 139.292969 72.199219 139.601562 C 71.921875 138.976562 71.25 138.46875 70.59375 138.277344 C 70.207031 138.167969 69.796875 138.160156 69.402344 138.074219 C 68.652344 137.914062 67.828125 137.335938 67.375 136.71875 C 67.035156 137.03125 66.972656 137.089844 66.574219 137.320312 C 66.175781 137.550781 65.707031 137.6875 65.253906 137.621094 C 64.839844 137.5625 64.457031 137.324219 64.195312 137 C 63.925781 136.679688 63.710938 136.144531 63.65625 135.726562 C 63.308594 136.285156 62.667969 136.628906 62.015625 136.695312 C 61.570312 136.742188 61.117188 136.667969 60.675781 136.75 C 60.0625 136.867188 59.410156 137.390625 59.152344 137.960938 C 58.605469 137.558594 57.875 137.507812 57.203125 137.601562 C 56.125 137.75 55.117188 138.222656 54.066406 138.503906 C 52.851562 138.828125 51.15625 138.835938 50.199219 138.46875 C 49.863281 137.339844 49.84375 136.121094 50.144531 134.984375 C 50.382812 134.097656 50.808594 133.265625 51.042969 132.375 C 51.285156 131.488281 51.339844 130.390625 50.824219 129.625 C 51.109375 129.398438 51.394531 129.167969 51.625 128.890625 C 51.859375 128.609375 52.042969 128.28125 52.089844 127.917969 C 52.144531 127.5 52.011719 127.078125 52.074219 126.660156 C 52.164062 126.058594 52.625 125.59375 53.058594 125.171875 C 52.464844 125.019531 51.6875 124.769531 51.363281 124.25 C 51.097656 123.828125 51.117188 123.273438 51.296875 122.808594 C 51.472656 122.339844 51.792969 121.941406 52.101562 121.550781 C 51.53125 120.882812 50.871094 120.1875 50.6875 119.324219 C 50.597656 118.898438 50.613281 118.460938 50.53125 118.039062 C 50.449219 117.613281 50.246094 117.175781 49.863281 116.980469 C 49.753906 116.925781 49.628906 116.886719 49.523438 116.824219 C 49.414062 116.757812 49.320312 116.652344 49.320312 116.527344 L 49.320312 116.523438 C 49.277344 115.292969 49.925781 114.140625 50.097656 112.917969 C 50.148438 112.574219 50.15625 112.21875 50.269531 111.890625 C 50.441406 111.371094 51.074219 110.941406 51.464844 110.554688 C 51.164062 110.160156 50.867188 109.761719 50.675781 109.304688 C 50.484375 108.847656 50.414062 108.324219 50.585938 107.863281 C 50.660156 107.660156 50.78125 107.472656 50.921875 107.308594 C 51.40625 106.75 52.125 106.457031 52.8125 106.1875 L 52.824219 106.183594 C 52.574219 105.773438 52.511719 105.28125 52.46875 104.800781 C 52.429688 104.320312 52.398438 103.828125 52.203125 103.390625 C 52.011719 102.953125 51.609375 102.566406 51.125 102.546875 C 51.476562 102.03125 51.515625 101.238281 51.355469 100.640625 C 51.195312 100.039062 50.910156 99.476562 50.753906 98.878906 C 50.59375 98.277344 50.582031 97.589844 50.9375 97.082031 C 50.101562 96.613281 49.253906 96.132812 48.757812 95.316406 C 48.570312 95.011719 48.441406 94.644531 48.503906 94.289062 C 48.554688 94.023438 48.707031 93.785156 48.875 93.570312 C 49.148438 93.214844 49.464844 92.894531 49.816406 92.617188 C 50.050781 92.433594 50.300781 92.261719 50.488281 92.027344 C 50.671875 91.792969 50.785156 91.472656 50.683594 91.1875 C 50.628906 90.714844 50.644531 90.148438 50.792969 89.695312 C 50.960938 89.1875 51.335938 88.765625 51.488281 88.253906 C 51.664062 87.667969 51.527344 86.976562 51.125 86.519531 C 51.40625 86.398438 51.699219 86.273438 51.898438 86.042969 C 52.082031 85.839844 52.171875 85.570312 52.238281 85.304688 C 52.4375 84.5625 52.503906 83.792969 52.570312 83.03125 C 52.578125 82.957031 52.582031 82.871094 52.542969 82.808594 C 52.503906 82.742188 52.253906 82.679688 52.207031 82.738281 C 51.363281 82.535156 50.671875 81.800781 50.515625 80.941406 C 50.359375 80.085938 50.757812 79.15625 51.480469 78.671875 C 50.851562 78.277344 50.40625 77.578125 50.179688 76.867188 C 49.953125 76.15625 49.882812 75.40625 49.769531 74.671875 C 49.65625 73.933594 49.492188 73.1875 49.105469 72.546875 C 49.707031 72.097656 50.355469 71.660156 50.550781 70.96875 C 50.699219 70.460938 50.664062 69.917969 50.785156 69.40625 C 50.953125 68.695312 51.417969 68.066406 52.042969 67.699219 C 51.734375 67.308594 51.429688 66.800781 51.277344 66.328125 C 51.121094 65.851562 51.117188 65.308594 51.378906 64.882812 C 51.703125 64.335938 52.425781 64.058594 53.042969 63.914062 L 53.070312 63.914062 C 52.761719 63.6875 52.777344 63.703125 52.554688 63.394531 C 52.285156 63.019531 52.171875 62.554688 52.101562 62.09375 C 52.03125 61.636719 52 61.167969 51.871094 60.722656 C 51.882812 60.40625 51.710938 60.03125 51.445312 59.859375 C 51.269531 59.746094 51.042969 59.671875 50.957031 59.480469 C 50.902344 59.359375 50.925781 59.210938 50.996094 59.097656 C 51.066406 58.984375 51.191406 58.878906 51.3125 58.8125 C 51.273438 57.542969 50.753906 56.34375 50.429688 55.113281 C 50.023438 53.605469 49.898438 52.027344 50.066406 50.476562 C 51.027344 50.105469 52.859375 50.195312 54.074219 50.523438 C 55.125 50.804688 56.128906 51.273438 57.210938 51.425781 C 57.878906 51.515625 58.613281 51.464844 59.160156 51.0625 C 59.417969 51.636719 60.066406 52.160156 60.683594 52.273438 C 61.125 52.355469 61.578125 52.285156 62.023438 52.332031 C 62.679688 52.398438 63.316406 52.742188 63.664062 53.296875 C 63.71875 52.882812 63.933594 52.347656 64.199219 52.023438 C 64.46875 51.703125 64.847656 51.46875 65.261719 51.402344 C 65.714844 51.332031 66.183594 51.472656 66.582031 51.703125 C 66.980469 51.933594 67.042969 51.992188 67.378906 52.308594 C 67.839844 51.6875 68.660156 51.109375 69.410156 50.949219 C 69.804688 50.867188 70.214844 50.855469 70.601562 50.746094 C 71.261719 50.558594 71.929688 50.050781 72.207031 49.421875 C 72.730469 49.734375 73.394531 49.652344 73.980469 49.824219 C 74.308594 49.925781 74.613281 50.101562 74.949219 50.175781 C 75.382812 50.273438 75.839844 50.1875 76.269531 50.28125 C 77.183594 50.484375 77.710938 51.417969 78.597656 51.71875 C 79.140625 51.324219 79.757812 51.027344 80.40625 50.855469 C 80.585938 50.804688 80.773438 50.765625 80.953125 50.796875 C 81.238281 50.839844 81.476562 51.035156 81.664062 51.25 C 82.144531 51.777344 82.429688 52.320312 82.503906 53.03125 C 82.949219 52.824219 83.441406 52.769531 83.925781 52.71875 C 84.410156 52.664062 84.902344 52.613281 85.347656 52.414062 C 85.792969 52.214844 86.199219 51.816406 86.300781 51.339844 C 86.789062 51.792969 87.535156 51.941406 88.160156 51.710938 C 88.558594 51.5625 88.894531 51.28125 89.28125 51.113281 C 90.042969 50.789062 90.875 50.925781 91.691406 51.0625 C 92.152344 50.304688 92.765625 49.644531 93.484375 49.128906 C 93.679688 48.988281 93.894531 48.859375 94.132812 48.820312 C 94.417969 48.773438 94.707031 48.871094 94.964844 48.996094 C 95.886719 49.441406 96.59375 50.304688 96.855469 51.296875 L 96.851562 51.144531 C 97.539062 50.839844 98.339844 50.792969 99.058594 51.015625 C 99.585938 51.179688 100.066406 51.480469 100.597656 51.644531 C 101.128906 51.8125 101.769531 51.804688 102.171875 51.425781 C 102.363281 51.976562 102.859375 52.449219 103.417969 52.628906 C 104.214844 52.878906 105.136719 52.597656 105.878906 52.980469 C 106.164062 52.320312 106.574219 51.671875 107.082031 51.164062 C 107.253906 50.992188 107.449219 50.828125 107.6875 50.769531 C 107.972656 50.699219 108.269531 50.792969 108.542969 50.902344 C 109.21875 51.171875 109.492188 51.269531 110.078125 51.710938 C 110.546875 51.238281 111.039062 50.75 111.671875 50.542969 C 112.230469 50.359375 112.847656 50.414062 113.402344 50.234375 C 113.796875 50.105469 114.152344 49.867188 114.558594 49.777344 C 114.828125 49.71875 115.105469 49.726562 115.382812 49.703125 C 115.65625 49.679688 115.941406 49.613281 116.152344 49.4375 C 116.480469 49.992188 116.988281 50.566406 117.59375 50.796875 C 118.332031 51.082031 119.238281 50.753906 119.902344 51.175781 C 120.164062 51.339844 120.347656 51.601562 120.5625 51.820312 C 120.777344 52.042969 121.054688 52.246094 121.363281 52.230469 C 121.882812 51.867188 122.472656 51.511719 123.0625 51.277344 C 123.21875 51.214844 123.382812 51.15625 123.550781 51.179688 C 123.773438 51.210938 123.949219 51.378906 124.09375 51.550781 C 124.496094 52.03125 124.785156 52.609375 124.921875 53.21875 C 125.25 52.730469 125.894531 52.480469 126.472656 52.390625 C 127.054688 52.296875 127.652344 52.289062 128.199219 52.070312 C 128.667969 51.882812 129.074219 51.535156 129.335938 51.105469 C 129.910156 51.542969 130.761719 51.566406 131.46875 51.410156 C 132.171875 51.257812 132.828125 50.933594 133.511719 50.703125 C 134.996094 50.195312 136.90625 50.113281 138.4375 50.472656 C 138.601562 52.027344 138.480469 53.605469 138.074219 55.113281 C 137.746094 56.339844 137.226562 57.539062 137.191406 58.8125 C 137.308594 58.875 137.433594 58.980469 137.503906 59.097656 C 137.578125 59.210938 137.601562 59.359375 137.546875 59.480469 C 137.460938 59.671875 137.230469 59.742188 137.054688 59.855469 C 136.792969 60.027344 136.621094 60.40625 136.632812 60.722656 C 136.503906 61.167969 136.472656 61.632812 136.402344 62.09375 C 136.328125 62.550781 136.214844 63.015625 135.949219 63.394531 C 135.726562 63.703125 135.738281 63.6875 135.433594 63.914062 L 135.457031 63.914062 C 136.078125 64.058594 136.796875 64.335938 137.125 64.878906 C 137.378906 65.308594 137.378906 65.851562 137.226562 66.324219 C 137.070312 66.800781 136.765625 67.308594 136.457031 67.699219 C 137.085938 68.066406 137.550781 68.699219 137.714844 69.40625 C 137.835938 69.917969 137.804688 70.457031 137.949219 70.964844 C 138.152344 71.65625 138.796875 72.09375 139.394531 72.546875 C 139.007812 73.183594 138.847656 73.933594 138.734375 74.667969 C 138.621094 75.40625 138.546875 76.15625 138.320312 76.867188 C 138.09375 77.578125 137.652344 78.273438 137.019531 78.671875 C 137.746094 79.15625 138.140625 80.085938 137.988281 80.941406 C 137.835938 81.796875 137.140625 82.535156 136.292969 82.738281 C 136.246094 82.679688 136 82.742188 135.960938 82.808594 C 135.921875 82.871094 135.925781 82.953125 135.933594 83.027344 C 136 83.792969 136.070312 84.5625 136.261719 85.304688 C 136.332031 85.570312 136.421875 85.835938 136.601562 86.042969 C 136.804688 86.273438 137.09375 86.398438 137.375 86.519531 C 136.972656 86.976562 136.839844 87.667969 137.015625 88.253906 C 137.167969 88.765625 137.542969 89.1875 137.707031 89.695312 C 137.859375 90.144531 137.875 90.710938 137.820312 91.1875 C 137.71875 91.46875 137.828125 91.789062 138.015625 92.023438 C 138.199219 92.257812 138.453125 92.429688 138.6875 92.617188 C 139.035156 92.894531 139.351562 93.214844 139.625 93.566406 C 139.792969 93.785156 139.949219 94.023438 139.996094 94.289062 C 140.050781 94.640625 139.917969 95.003906 139.730469 95.316406 Z M 139.730469 95.316406 " fill-opacity="1" fill-rule="nonzero"/></g><g clip-path="url(#0de2ae39fa)"><path fill="#000000" d="M 47.613281 47.894531 L 140.859375 47.894531 L 140.859375 141.140625 L 47.613281 141.140625 Z M 47.613281 47.894531 " fill-opacity="1" fill-rule="nonzero"/></g><g clip-path="url(#7cc0706d75)"><path fill="#000000" d="M 326.242188 95.316406 C 325.746094 96.132812 324.902344 96.613281 324.066406 97.078125 C 324.417969 97.589844 324.40625 98.273438 324.25 98.875 C 324.089844 99.476562 323.804688 100.039062 323.644531 100.636719 C 323.484375 101.238281 323.527344 102.03125 323.875 102.542969 C 323.394531 102.566406 322.992188 102.949219 322.796875 103.390625 C 322.605469 103.832031 322.574219 104.320312 322.53125 104.800781 C 322.492188 105.277344 322.425781 105.773438 322.175781 106.183594 L 322.1875 106.183594 C 322.875 106.457031 323.59375 106.75 324.078125 107.308594 C 324.222656 107.472656 324.34375 107.660156 324.417969 107.859375 C 324.585938 108.324219 324.519531 108.847656 324.328125 109.304688 C 324.136719 109.757812 323.835938 110.15625 323.539062 110.550781 C 323.925781 110.9375 324.558594 111.367188 324.734375 111.886719 C 324.84375 112.21875 324.855469 112.574219 324.902344 112.917969 C 325.074219 114.140625 325.722656 115.289062 325.683594 116.523438 C 325.679688 116.652344 325.585938 116.757812 325.480469 116.820312 C 325.371094 116.886719 325.25 116.921875 325.140625 116.980469 C 324.753906 117.175781 324.550781 117.609375 324.472656 118.035156 C 324.390625 118.460938 324.40625 118.898438 324.3125 119.320312 C 324.132812 120.179688 323.472656 120.878906 322.898438 121.550781 C 323.210938 121.941406 323.527344 122.339844 323.707031 122.804688 C 323.882812 123.273438 323.902344 123.824219 323.636719 124.25 C 323.3125 124.765625 322.535156 125.011719 321.941406 125.167969 C 322.378906 125.589844 322.839844 126.058594 322.925781 126.65625 C 322.984375 127.074219 322.855469 127.5 322.910156 127.917969 C 322.957031 128.277344 323.140625 128.609375 323.375 128.886719 C 323.609375 129.164062 323.894531 129.394531 324.175781 129.625 C 323.664062 130.390625 323.71875 131.484375 323.957031 132.375 C 324.199219 133.261719 324.621094 134.09375 324.855469 134.984375 C 325.160156 136.121094 325.136719 137.339844 324.804688 138.464844 C 323.273438 138.828125 321.503906 138.832031 320.015625 138.324219 C 319.335938 138.089844 318.679688 137.765625 317.972656 137.613281 C 317.269531 137.460938 316.417969 137.484375 315.84375 137.921875 C 315.582031 137.488281 315.175781 137.144531 314.707031 136.957031 C 314.164062 136.738281 313.558594 136.726562 312.980469 136.636719 C 312.402344 136.542969 311.757812 136.292969 311.429688 135.804688 C 311.289062 136.417969 311.003906 136.992188 310.601562 137.472656 C 310.457031 137.644531 310.28125 137.8125 310.058594 137.84375 C 309.890625 137.867188 309.726562 137.8125 309.570312 137.75 C 308.976562 137.515625 308.390625 137.160156 307.871094 136.796875 C 307.5625 136.78125 307.285156 136.980469 307.070312 137.203125 C 306.855469 137.425781 306.667969 137.683594 306.410156 137.847656 C 305.742188 138.269531 304.835938 137.941406 304.101562 138.226562 C 303.5 138.460938 302.988281 139.03125 302.660156 139.589844 C 302.445312 139.410156 302.164062 139.347656 301.886719 139.324219 C 301.613281 139.300781 301.335938 139.308594 301.0625 139.25 C 300.660156 139.160156 300.304688 138.917969 299.910156 138.792969 C 299.351562 138.613281 298.738281 138.664062 298.179688 138.484375 C 297.550781 138.277344 297.054688 137.789062 296.585938 137.316406 C 296 137.753906 295.730469 137.851562 295.050781 138.121094 C 294.777344 138.230469 294.480469 138.324219 294.195312 138.257812 C 293.957031 138.195312 293.761719 138.03125 293.589844 137.859375 C 293.082031 137.355469 292.671875 136.707031 292.386719 136.046875 C 291.644531 136.425781 290.722656 136.144531 289.925781 136.394531 C 289.371094 136.574219 288.871094 137.046875 288.679688 137.601562 C 288.277344 137.214844 287.636719 137.214844 287.105469 137.378906 C 286.574219 137.542969 286.09375 137.84375 285.5625 138.011719 C 284.84375 138.230469 284.046875 138.183594 283.359375 137.878906 L 283.359375 137.730469 C 283.101562 138.71875 282.390625 139.582031 281.472656 140.027344 C 281.210938 140.15625 280.921875 140.25 280.640625 140.207031 C 280.402344 140.167969 280.1875 140.035156 279.988281 139.894531 C 279.269531 139.382812 278.65625 138.71875 278.199219 137.960938 C 277.382812 138.101562 276.550781 138.238281 275.789062 137.910156 C 275.402344 137.742188 275.0625 137.460938 274.667969 137.316406 C 274.042969 137.085938 273.296875 137.234375 272.804688 137.683594 C 272.707031 137.207031 272.296875 136.808594 271.855469 136.613281 C 271.410156 136.414062 270.917969 136.359375 270.433594 136.308594 C 269.949219 136.257812 269.457031 136.199219 269.011719 135.996094 C 268.933594 136.703125 268.652344 137.246094 268.171875 137.777344 C 267.980469 137.988281 267.746094 138.183594 267.460938 138.230469 C 267.277344 138.257812 267.089844 138.21875 266.914062 138.171875 C 266.261719 137.996094 265.648438 137.703125 265.105469 137.308594 C 264.21875 137.609375 263.691406 138.539062 262.777344 138.742188 C 262.347656 138.835938 261.886719 138.753906 261.457031 138.847656 C 261.121094 138.921875 260.820312 139.101562 260.484375 139.199219 C 259.902344 139.371094 259.238281 139.292969 258.714844 139.601562 C 258.4375 138.976562 257.765625 138.46875 257.109375 138.277344 C 256.722656 138.167969 256.3125 138.160156 255.917969 138.074219 C 255.164062 137.914062 254.34375 137.335938 253.886719 136.71875 C 253.550781 137.03125 253.488281 137.089844 253.089844 137.320312 C 252.6875 137.550781 252.21875 137.6875 251.765625 137.621094 C 251.351562 137.5625 250.972656 137.324219 250.707031 137 C 250.441406 136.679688 250.222656 136.144531 250.167969 135.726562 C 249.820312 136.285156 249.183594 136.628906 248.53125 136.695312 C 248.085938 136.742188 247.632812 136.667969 247.191406 136.75 C 246.574219 136.867188 245.921875 137.390625 245.664062 137.960938 C 245.121094 137.558594 244.390625 137.507812 243.71875 137.601562 C 242.636719 137.75 241.632812 138.222656 240.582031 138.503906 C 239.367188 138.828125 237.671875 138.835938 236.714844 138.46875 C 236.375 137.339844 236.359375 136.121094 236.660156 134.984375 C 236.894531 134.097656 237.320312 133.265625 237.558594 132.375 C 237.796875 131.488281 237.851562 130.390625 237.339844 129.625 C 237.625 129.398438 237.90625 129.167969 238.140625 128.890625 C 238.375 128.609375 238.558594 128.28125 238.605469 127.917969 C 238.660156 127.5 238.527344 127.078125 238.589844 126.660156 C 238.675781 126.058594 239.136719 125.59375 239.574219 125.171875 C 238.980469 125.019531 238.203125 124.769531 237.878906 124.25 C 237.613281 123.828125 237.632812 123.273438 237.8125 122.808594 C 237.988281 122.339844 238.304688 121.941406 238.617188 121.550781 C 238.042969 120.882812 237.386719 120.1875 237.203125 119.324219 C 237.113281 118.898438 237.128906 118.460938 237.042969 118.039062 C 236.964844 117.613281 236.761719 117.175781 236.378906 116.980469 C 236.265625 116.925781 236.144531 116.886719 236.035156 116.824219 C 235.929688 116.757812 235.835938 116.652344 235.832031 116.527344 L 235.832031 116.523438 C 235.789062 115.292969 236.4375 114.140625 236.613281 112.917969 C 236.660156 112.574219 236.671875 112.21875 236.78125 111.890625 C 236.957031 111.371094 237.589844 110.941406 237.976562 110.554688 C 237.679688 110.160156 237.378906 109.761719 237.191406 109.304688 C 237 108.847656 236.925781 108.324219 237.097656 107.863281 C 237.175781 107.660156 237.296875 107.472656 237.4375 107.308594 C 237.921875 106.75 238.640625 106.457031 239.328125 106.1875 L 239.339844 106.183594 C 239.089844 105.773438 239.027344 105.28125 238.984375 104.800781 C 238.941406 104.320312 238.910156 103.828125 238.71875 103.390625 C 238.523438 102.953125 238.121094 102.566406 237.640625 102.546875 C 237.988281 102.03125 238.03125 101.238281 237.871094 100.640625 C 237.710938 100.039062 237.425781 99.476562 237.265625 98.878906 C 237.109375 98.277344 237.097656 97.589844 237.449219 97.082031 C 236.613281 96.613281 235.769531 96.132812 235.273438 95.316406 C 235.085938 95.011719 234.957031 94.644531 235.019531 94.289062 C 235.070312 94.023438 235.222656 93.785156 235.390625 93.570312 C 235.664062 93.214844 235.980469 92.894531 236.328125 92.617188 C 236.5625 92.433594 236.816406 92.261719 237 92.027344 C 237.1875 91.792969 237.296875 91.472656 237.199219 91.1875 C 237.144531 90.714844 237.160156 90.148438 237.308594 89.695312 C 237.476562 89.1875 237.847656 88.765625 238 88.253906 C 238.175781 87.667969 238.042969 86.976562 237.640625 86.519531 C 237.921875 86.398438 238.210938 86.273438 238.414062 86.042969 C 238.59375 85.839844 238.683594 85.570312 238.753906 85.304688 C 238.949219 84.5625 239.015625 83.792969 239.085938 83.03125 C 239.089844 82.957031 239.097656 82.871094 239.054688 82.808594 C 239.015625 82.742188 238.769531 82.679688 238.722656 82.738281 C 237.878906 82.535156 237.183594 81.800781 237.03125 80.941406 C 236.875 80.085938 237.273438 79.15625 237.996094 78.671875 C 237.363281 78.277344 236.921875 77.578125 236.695312 76.867188 C 236.46875 76.15625 236.394531 75.40625 236.28125 74.671875 C 236.171875 73.933594 236.003906 73.1875 235.621094 72.546875 C 236.222656 72.097656 236.867188 71.660156 237.066406 70.96875 C 237.214844 70.460938 237.179688 69.917969 237.300781 69.40625 C 237.464844 68.695312 237.933594 68.066406 238.558594 67.699219 C 238.25 67.308594 237.945312 66.800781 237.789062 66.328125 C 237.636719 65.851562 237.632812 65.308594 237.890625 64.882812 C 238.214844 64.335938 238.941406 64.058594 239.558594 63.914062 L 239.585938 63.914062 C 239.277344 63.6875 239.289062 63.703125 239.070312 63.394531 C 238.800781 63.019531 238.683594 62.554688 238.613281 62.09375 C 238.546875 61.636719 238.515625 61.167969 238.386719 60.722656 C 238.394531 60.40625 238.226562 60.03125 237.960938 59.859375 C 237.785156 59.746094 237.554688 59.671875 237.46875 59.480469 C 237.417969 59.359375 237.441406 59.210938 237.511719 59.097656 C 237.582031 58.984375 237.707031 58.878906 237.824219 58.8125 C 237.789062 57.542969 237.269531 56.34375 236.941406 55.113281 C 236.539062 53.605469 236.414062 52.027344 236.578125 50.476562 C 237.539062 50.105469 239.375 50.195312 240.589844 50.523438 C 241.640625 50.804688 242.644531 51.273438 243.726562 51.425781 C 244.394531 51.515625 245.125 51.464844 245.671875 51.0625 C 245.929688 51.636719 246.582031 52.160156 247.199219 52.273438 C 247.640625 52.355469 248.09375 52.285156 248.539062 52.332031 C 249.191406 52.398438 249.828125 52.742188 250.175781 53.296875 C 250.234375 52.882812 250.449219 52.347656 250.714844 52.023438 C 250.984375 51.703125 251.363281 51.46875 251.773438 51.402344 C 252.230469 51.332031 252.695312 51.472656 253.097656 51.703125 C 253.496094 51.933594 253.558594 51.992188 253.894531 52.308594 C 254.355469 51.6875 255.171875 51.109375 255.925781 50.949219 C 256.320312 50.867188 256.730469 50.855469 257.117188 50.746094 C 257.773438 50.558594 258.445312 50.050781 258.71875 49.421875 C 259.246094 49.734375 259.910156 49.652344 260.492188 49.824219 C 260.824219 49.925781 261.128906 50.101562 261.464844 50.175781 C 261.898438 50.273438 262.355469 50.1875 262.785156 50.28125 C 263.699219 50.484375 264.226562 51.417969 265.109375 51.71875 C 265.65625 51.324219 266.269531 51.027344 266.921875 50.855469 C 267.101562 50.804688 267.285156 50.765625 267.46875 50.796875 C 267.753906 50.839844 267.988281 51.035156 268.179688 51.25 C 268.65625 51.777344 268.941406 52.320312 269.019531 53.03125 C 269.464844 52.824219 269.957031 52.769531 270.441406 52.71875 C 270.925781 52.664062 271.417969 52.613281 271.863281 52.414062 C 272.308594 52.214844 272.714844 51.816406 272.8125 51.339844 C 273.304688 51.792969 274.050781 51.941406 274.675781 51.710938 C 275.074219 51.5625 275.40625 51.28125 275.796875 51.113281 C 276.558594 50.789062 277.390625 50.925781 278.207031 51.0625 C 278.664062 50.304688 279.277344 49.644531 279.996094 49.128906 C 280.195312 48.988281 280.40625 48.859375 280.648438 48.820312 C 280.933594 48.773438 281.222656 48.871094 281.480469 48.996094 C 282.398438 49.441406 283.109375 50.304688 283.367188 51.296875 L 283.367188 51.144531 C 284.054688 50.839844 284.851562 50.792969 285.570312 51.015625 C 286.101562 51.179688 286.582031 51.480469 287.113281 51.644531 C 287.644531 51.8125 288.28125 51.804688 288.6875 51.425781 C 288.878906 51.976562 289.375 52.449219 289.933594 52.628906 C 290.730469 52.878906 291.652344 52.597656 292.394531 52.980469 C 292.679688 52.320312 293.089844 51.671875 293.597656 51.164062 C 293.769531 50.992188 293.964844 50.828125 294.203125 50.769531 C 294.488281 50.699219 294.785156 50.792969 295.058594 50.902344 C 295.734375 51.171875 296.007812 51.269531 296.59375 51.710938 C 297.0625 51.238281 297.554688 50.75 298.1875 50.542969 C 298.746094 50.359375 299.359375 50.414062 299.917969 50.234375 C 300.3125 50.105469 300.667969 49.867188 301.070312 49.777344 C 301.339844 49.71875 301.621094 49.726562 301.894531 49.703125 C 302.171875 49.679688 302.453125 49.613281 302.664062 49.4375 C 302.996094 49.992188 303.503906 50.566406 304.109375 50.796875 C 304.847656 51.082031 305.753906 50.753906 306.417969 51.175781 C 306.679688 51.339844 306.863281 51.601562 307.078125 51.820312 C 307.289062 52.042969 307.570312 52.246094 307.878906 52.230469 C 308.398438 51.867188 308.984375 51.511719 309.578125 51.277344 C 309.734375 51.214844 309.898438 51.15625 310.066406 51.179688 C 310.289062 51.210938 310.464844 51.378906 310.605469 51.550781 C 311.011719 52.03125 311.296875 52.609375 311.4375 53.21875 C 311.765625 52.730469 312.410156 52.480469 312.988281 52.390625 C 313.566406 52.296875 314.167969 52.289062 314.714844 52.070312 C 315.183594 51.882812 315.585938 51.535156 315.851562 51.105469 C 316.425781 51.542969 317.277344 51.566406 317.980469 51.410156 C 318.6875 51.257812 319.34375 50.933594 320.023438 50.703125 C 321.511719 50.195312 323.421875 50.113281 324.953125 50.472656 C 325.117188 52.027344 324.992188 53.605469 324.589844 55.113281 C 324.257812 56.339844 323.742188 57.539062 323.707031 58.8125 C 323.824219 58.875 323.949219 58.980469 324.019531 59.097656 C 324.089844 59.210938 324.113281 59.359375 324.0625 59.480469 C 323.976562 59.671875 323.746094 59.742188 323.570312 59.855469 C 323.304688 60.027344 323.136719 60.40625 323.144531 60.722656 C 323.019531 61.167969 322.988281 61.632812 322.917969 62.09375 C 322.84375 62.550781 322.730469 63.015625 322.460938 63.394531 C 322.242188 63.703125 322.253906 63.6875 321.945312 63.914062 L 321.972656 63.914062 C 322.589844 64.058594 323.3125 64.335938 323.640625 64.878906 C 323.894531 65.308594 323.894531 65.851562 323.742188 66.324219 C 323.585938 66.800781 323.28125 67.308594 322.972656 67.699219 C 323.597656 68.066406 324.066406 68.699219 324.230469 69.40625 C 324.347656 69.917969 324.316406 70.457031 324.464844 70.964844 C 324.664062 71.65625 325.308594 72.09375 325.910156 72.546875 C 325.523438 73.183594 325.359375 73.933594 325.246094 74.667969 C 325.136719 75.40625 325.0625 76.15625 324.835938 76.867188 C 324.609375 77.578125 324.167969 78.273438 323.535156 78.671875 C 324.257812 79.15625 324.652344 80.085938 324.5 80.941406 C 324.347656 81.796875 323.65625 82.535156 322.808594 82.738281 C 322.761719 82.679688 322.515625 82.742188 322.476562 82.808594 C 322.4375 82.871094 322.441406 82.953125 322.445312 83.027344 C 322.515625 83.792969 322.582031 84.5625 322.777344 85.304688 C 322.847656 85.570312 322.9375 85.835938 323.117188 86.042969 C 323.316406 86.273438 323.609375 86.398438 323.890625 86.519531 C 323.488281 86.976562 323.355469 87.667969 323.53125 88.253906 C 323.683594 88.765625 324.054688 89.1875 324.222656 89.695312 C 324.371094 90.144531 324.386719 90.710938 324.332031 91.1875 C 324.234375 91.46875 324.34375 91.789062 324.53125 92.023438 C 324.714844 92.257812 324.96875 92.429688 325.203125 92.617188 C 325.550781 92.894531 325.867188 93.214844 326.140625 93.566406 C 326.308594 93.785156 326.460938 94.023438 326.511719 94.289062 C 326.5625 94.640625 326.433594 95.003906 326.242188 95.316406 Z M 326.242188 95.316406 " fill-opacity="1" fill-rule="nonzero"/></g><g clip-path="url(#c9a8a28e8f)"><path fill="#000000" d="M 234.128906 47.894531 L 327.375 47.894531 L 327.375 141.140625 L 234.128906 141.140625 Z M 234.128906 47.894531 " fill-opacity="1" fill-rule="nonzero"/></g></svg>